<mxfile host="app.diagrams.net" agent="Mozilla/5.0 (Windows NT 10.0; Win64; x64) AppleWebKit/537.36 (KHTML, like Gecko) Chrome/139.0.0.0 Safari/537.36" version="28.0.9">
  <diagram id="C5RBs43oDa-KdzZeNtuy" name="Page-1">
    <mxGraphModel grid="1" page="1" gridSize="10" guides="1" tooltips="1" connect="1" arrows="1" fold="1" pageScale="1" pageWidth="827" pageHeight="1169" math="0" shadow="0">
      <root>
        <mxCell id="WIyWlLk6GJQsqaUBKTNV-0" />
        <mxCell id="WIyWlLk6GJQsqaUBKTNV-1" parent="WIyWlLk6GJQsqaUBKTNV-0" />
        <mxCell id="MaB-Qeh2MucJvg17H76J-40" value="Inicio" style="ellipse;aspect=fixed;strokeWidth=2;whiteSpace=wrap;" vertex="1" parent="WIyWlLk6GJQsqaUBKTNV-1">
          <mxGeometry x="449" y="20" width="54" height="54" as="geometry" />
        </mxCell>
        <mxCell id="MaB-Qeh2MucJvg17H76J-41" value="Mostrar bienvenida y reglas" style="whiteSpace=wrap;strokeWidth=2;" vertex="1" parent="WIyWlLk6GJQsqaUBKTNV-1">
          <mxGeometry x="347" y="124" width="257" height="54" as="geometry" />
        </mxCell>
        <mxCell id="MaB-Qeh2MucJvg17H76J-42" value="Obtener nombre del usuario" style="whiteSpace=wrap;strokeWidth=2;" vertex="1" parent="WIyWlLk6GJQsqaUBKTNV-1">
          <mxGeometry x="346" y="228" width="260" height="78" as="geometry" />
        </mxCell>
        <mxCell id="MaB-Qeh2MucJvg17H76J-43" value="¿Nombre vacío?" style="rhombus;strokeWidth=2;whiteSpace=wrap;" vertex="1" parent="WIyWlLk6GJQsqaUBKTNV-1">
          <mxGeometry x="394" y="379" width="164" height="164" as="geometry" />
        </mxCell>
        <mxCell id="MaB-Qeh2MucJvg17H76J-44" value="Mostrar saludo personalizado" style="whiteSpace=wrap;strokeWidth=2;" vertex="1" parent="WIyWlLk6GJQsqaUBKTNV-1">
          <mxGeometry x="346" y="616" width="260" height="78" as="geometry" />
        </mxCell>
        <mxCell id="MaB-Qeh2MucJvg17H76J-45" value="Obtener jugada del usuario" style="whiteSpace=wrap;strokeWidth=2;" vertex="1" parent="WIyWlLk6GJQsqaUBKTNV-1">
          <mxGeometry x="348" y="744" width="255" height="54" as="geometry" />
        </mxCell>
        <mxCell id="MaB-Qeh2MucJvg17H76J-46" value="¿Jugada válida?" style="rhombus;strokeWidth=2;whiteSpace=wrap;" vertex="1" parent="WIyWlLk6GJQsqaUBKTNV-1">
          <mxGeometry x="378" y="871" width="164" height="164" as="geometry" />
        </mxCell>
        <mxCell id="MaB-Qeh2MucJvg17H76J-47" value="Generar jugada de la computadora" style="whiteSpace=wrap;strokeWidth=2;" vertex="1" parent="WIyWlLk6GJQsqaUBKTNV-1">
          <mxGeometry x="330" y="1107" width="260" height="78" as="geometry" />
        </mxCell>
        <mxCell id="MaB-Qeh2MucJvg17H76J-48" value="Mostrar jugadas" style="whiteSpace=wrap;strokeWidth=2;" vertex="1" parent="WIyWlLk6GJQsqaUBKTNV-1">
          <mxGeometry x="373" y="1235" width="173" height="54" as="geometry" />
        </mxCell>
        <mxCell id="MaB-Qeh2MucJvg17H76J-49" value="Determinar ganador" style="rhombus;strokeWidth=2;whiteSpace=wrap;" vertex="1" parent="WIyWlLk6GJQsqaUBKTNV-1">
          <mxGeometry x="361" y="1362" width="197" height="197" as="geometry" />
        </mxCell>
        <mxCell id="MaB-Qeh2MucJvg17H76J-50" value="Mostrar Ganaste esta ronda!" style="whiteSpace=wrap;strokeWidth=2;" vertex="1" parent="WIyWlLk6GJQsqaUBKTNV-1">
          <mxGeometry x="20" y="1632" width="260" height="78" as="geometry" />
        </mxCell>
        <mxCell id="MaB-Qeh2MucJvg17H76J-51" value="Mostrar Perdiste esta ronda!" style="whiteSpace=wrap;strokeWidth=2;" vertex="1" parent="WIyWlLk6GJQsqaUBKTNV-1">
          <mxGeometry x="330" y="1632" width="260" height="78" as="geometry" />
        </mxCell>
        <mxCell id="MaB-Qeh2MucJvg17H76J-52" value="Mostrar ¡Es un empate!" style="whiteSpace=wrap;strokeWidth=2;" vertex="1" parent="WIyWlLk6GJQsqaUBKTNV-1">
          <mxGeometry x="640" y="1644" width="227" height="54" as="geometry" />
        </mxCell>
        <mxCell id="MaB-Qeh2MucJvg17H76J-53" value="Fin de la ronda" style="whiteSpace=wrap;strokeWidth=2;" vertex="1" parent="WIyWlLk6GJQsqaUBKTNV-1">
          <mxGeometry x="368" y="1760" width="168" height="54" as="geometry" />
        </mxCell>
        <mxCell id="MaB-Qeh2MucJvg17H76J-54" value="¿Jugar de nuevo?" style="rhombus;strokeWidth=2;whiteSpace=wrap;" vertex="1" parent="WIyWlLk6GJQsqaUBKTNV-1">
          <mxGeometry x="594" y="1864" width="175" height="175" as="geometry" />
        </mxCell>
        <mxCell id="MaB-Qeh2MucJvg17H76J-55" value="Fin" style="ellipse;aspect=fixed;strokeWidth=2;whiteSpace=wrap;" vertex="1" parent="WIyWlLk6GJQsqaUBKTNV-1">
          <mxGeometry x="663" y="2112" width="37" height="37" as="geometry" />
        </mxCell>
        <mxCell id="MaB-Qeh2MucJvg17H76J-56" value="" style="curved=1;startArrow=none;endArrow=block;exitX=0.5;exitY=1;entryX=0.5;entryY=0;rounded=0;" edge="1" parent="WIyWlLk6GJQsqaUBKTNV-1" source="MaB-Qeh2MucJvg17H76J-40" target="MaB-Qeh2MucJvg17H76J-41">
          <mxGeometry relative="1" as="geometry">
            <Array as="points" />
          </mxGeometry>
        </mxCell>
        <mxCell id="MaB-Qeh2MucJvg17H76J-57" value="" style="curved=1;startArrow=none;endArrow=block;exitX=0.5;exitY=1;entryX=0.5;entryY=0;rounded=0;" edge="1" parent="WIyWlLk6GJQsqaUBKTNV-1" source="MaB-Qeh2MucJvg17H76J-41" target="MaB-Qeh2MucJvg17H76J-42">
          <mxGeometry relative="1" as="geometry">
            <Array as="points" />
          </mxGeometry>
        </mxCell>
        <mxCell id="MaB-Qeh2MucJvg17H76J-58" value="" style="curved=1;startArrow=none;endArrow=block;exitX=0.47;exitY=1;entryX=0.44;entryY=0;rounded=0;" edge="1" parent="WIyWlLk6GJQsqaUBKTNV-1" source="MaB-Qeh2MucJvg17H76J-42" target="MaB-Qeh2MucJvg17H76J-43">
          <mxGeometry relative="1" as="geometry">
            <Array as="points">
              <mxPoint x="461" y="342" />
            </Array>
          </mxGeometry>
        </mxCell>
        <mxCell id="MaB-Qeh2MucJvg17H76J-59" value="Sí" style="curved=1;startArrow=none;endArrow=block;exitX=0.56;exitY=0;entryX=0.53;entryY=1;rounded=0;" edge="1" parent="WIyWlLk6GJQsqaUBKTNV-1" source="MaB-Qeh2MucJvg17H76J-43" target="MaB-Qeh2MucJvg17H76J-42">
          <mxGeometry relative="1" as="geometry">
            <Array as="points">
              <mxPoint x="490" y="342" />
            </Array>
          </mxGeometry>
        </mxCell>
        <mxCell id="MaB-Qeh2MucJvg17H76J-60" value="No" style="curved=1;startArrow=none;endArrow=block;exitX=0.5;exitY=1;entryX=0.5;entryY=0;rounded=0;" edge="1" parent="WIyWlLk6GJQsqaUBKTNV-1" source="MaB-Qeh2MucJvg17H76J-43" target="MaB-Qeh2MucJvg17H76J-44">
          <mxGeometry relative="1" as="geometry">
            <Array as="points" />
          </mxGeometry>
        </mxCell>
        <mxCell id="MaB-Qeh2MucJvg17H76J-61" value="" style="curved=1;startArrow=none;endArrow=block;exitX=0.5;exitY=1;entryX=0.5;entryY=-0.01;rounded=0;" edge="1" parent="WIyWlLk6GJQsqaUBKTNV-1" source="MaB-Qeh2MucJvg17H76J-44" target="MaB-Qeh2MucJvg17H76J-45">
          <mxGeometry relative="1" as="geometry">
            <Array as="points" />
          </mxGeometry>
        </mxCell>
        <mxCell id="MaB-Qeh2MucJvg17H76J-62" value="" style="curved=1;startArrow=none;endArrow=block;exitX=0.45;exitY=0.99;entryX=0.43;entryY=0;rounded=0;" edge="1" parent="WIyWlLk6GJQsqaUBKTNV-1" source="MaB-Qeh2MucJvg17H76J-45" target="MaB-Qeh2MucJvg17H76J-46">
          <mxGeometry relative="1" as="geometry">
            <Array as="points">
              <mxPoint x="444" y="834" />
            </Array>
          </mxGeometry>
        </mxCell>
        <mxCell id="MaB-Qeh2MucJvg17H76J-63" value="No" style="curved=1;startArrow=none;endArrow=block;exitX=1;exitY=0.11;entryX=0.73;entryY=0.99;rounded=0;" edge="1" parent="WIyWlLk6GJQsqaUBKTNV-1" source="MaB-Qeh2MucJvg17H76J-46" target="MaB-Qeh2MucJvg17H76J-45">
          <mxGeometry relative="1" as="geometry">
            <Array as="points">
              <mxPoint x="614" y="834" />
            </Array>
          </mxGeometry>
        </mxCell>
        <mxCell id="MaB-Qeh2MucJvg17H76J-64" value="Sí" style="curved=1;startArrow=none;endArrow=block;exitX=0.5;exitY=1;entryX=0.5;entryY=0;rounded=0;" edge="1" parent="WIyWlLk6GJQsqaUBKTNV-1" source="MaB-Qeh2MucJvg17H76J-46" target="MaB-Qeh2MucJvg17H76J-47">
          <mxGeometry relative="1" as="geometry">
            <Array as="points" />
          </mxGeometry>
        </mxCell>
        <mxCell id="MaB-Qeh2MucJvg17H76J-65" value="" style="curved=1;startArrow=none;endArrow=block;exitX=0.5;exitY=1;entryX=0.5;entryY=0;rounded=0;" edge="1" parent="WIyWlLk6GJQsqaUBKTNV-1" source="MaB-Qeh2MucJvg17H76J-47" target="MaB-Qeh2MucJvg17H76J-48">
          <mxGeometry relative="1" as="geometry">
            <Array as="points" />
          </mxGeometry>
        </mxCell>
        <mxCell id="MaB-Qeh2MucJvg17H76J-66" value="" style="curved=1;startArrow=none;endArrow=block;exitX=0.5;exitY=1;entryX=0.5;entryY=0;rounded=0;" edge="1" parent="WIyWlLk6GJQsqaUBKTNV-1" source="MaB-Qeh2MucJvg17H76J-48" target="MaB-Qeh2MucJvg17H76J-49">
          <mxGeometry relative="1" as="geometry">
            <Array as="points" />
          </mxGeometry>
        </mxCell>
        <mxCell id="MaB-Qeh2MucJvg17H76J-67" value="Gana" style="curved=1;startArrow=none;endArrow=block;exitX=0;exitY=0.72;entryX=0.5;entryY=0;rounded=0;" edge="1" parent="WIyWlLk6GJQsqaUBKTNV-1" source="MaB-Qeh2MucJvg17H76J-49" target="MaB-Qeh2MucJvg17H76J-50">
          <mxGeometry relative="1" as="geometry">
            <Array as="points">
              <mxPoint x="150" y="1596" />
            </Array>
          </mxGeometry>
        </mxCell>
        <mxCell id="MaB-Qeh2MucJvg17H76J-68" value="Pierde" style="curved=1;startArrow=none;endArrow=block;exitX=0.5;exitY=1;entryX=0.5;entryY=0;rounded=0;" edge="1" parent="WIyWlLk6GJQsqaUBKTNV-1" source="MaB-Qeh2MucJvg17H76J-49" target="MaB-Qeh2MucJvg17H76J-51">
          <mxGeometry relative="1" as="geometry">
            <Array as="points" />
          </mxGeometry>
        </mxCell>
        <mxCell id="MaB-Qeh2MucJvg17H76J-69" value="Empate" style="curved=1;startArrow=none;endArrow=block;exitX=1;exitY=0.73;entryX=0.5;entryY=0.01;rounded=0;" edge="1" parent="WIyWlLk6GJQsqaUBKTNV-1" source="MaB-Qeh2MucJvg17H76J-49" target="MaB-Qeh2MucJvg17H76J-52">
          <mxGeometry relative="1" as="geometry">
            <Array as="points">
              <mxPoint x="753" y="1596" />
            </Array>
          </mxGeometry>
        </mxCell>
        <mxCell id="MaB-Qeh2MucJvg17H76J-70" value="" style="curved=1;startArrow=none;endArrow=block;exitX=0.5;exitY=1;entryX=0;entryY=0.24;rounded=0;" edge="1" parent="WIyWlLk6GJQsqaUBKTNV-1" source="MaB-Qeh2MucJvg17H76J-50" target="MaB-Qeh2MucJvg17H76J-53">
          <mxGeometry relative="1" as="geometry">
            <Array as="points">
              <mxPoint x="150" y="1735" />
            </Array>
          </mxGeometry>
        </mxCell>
        <mxCell id="MaB-Qeh2MucJvg17H76J-71" value="" style="curved=1;startArrow=none;endArrow=block;exitX=0.5;exitY=1;entryX=0.52;entryY=0.01;rounded=0;" edge="1" parent="WIyWlLk6GJQsqaUBKTNV-1" source="MaB-Qeh2MucJvg17H76J-51" target="MaB-Qeh2MucJvg17H76J-53">
          <mxGeometry relative="1" as="geometry">
            <Array as="points">
              <mxPoint x="460" y="1735" />
            </Array>
          </mxGeometry>
        </mxCell>
        <mxCell id="MaB-Qeh2MucJvg17H76J-72" value="" style="curved=1;startArrow=none;endArrow=block;exitX=0.5;exitY=1.01;entryX=1;entryY=0.24;rounded=0;" edge="1" parent="WIyWlLk6GJQsqaUBKTNV-1" source="MaB-Qeh2MucJvg17H76J-52" target="MaB-Qeh2MucJvg17H76J-53">
          <mxGeometry relative="1" as="geometry">
            <Array as="points">
              <mxPoint x="753" y="1735" />
            </Array>
          </mxGeometry>
        </mxCell>
        <mxCell id="MaB-Qeh2MucJvg17H76J-73" value="" style="curved=1;startArrow=none;endArrow=block;exitX=0.5;exitY=1.01;entryX=0;entryY=0.26;rounded=0;" edge="1" parent="WIyWlLk6GJQsqaUBKTNV-1" source="MaB-Qeh2MucJvg17H76J-53" target="MaB-Qeh2MucJvg17H76J-54">
          <mxGeometry relative="1" as="geometry">
            <Array as="points">
              <mxPoint x="452" y="1839" />
            </Array>
          </mxGeometry>
        </mxCell>
        <mxCell id="MaB-Qeh2MucJvg17H76J-74" value="Sí" style="curved=1;startArrow=none;endArrow=block;exitX=1;exitY=0.25;entryX=1;entryY=0.85;rounded=0;" edge="1" parent="WIyWlLk6GJQsqaUBKTNV-1" source="MaB-Qeh2MucJvg17H76J-54" target="MaB-Qeh2MucJvg17H76J-45">
          <mxGeometry relative="1" as="geometry">
            <Array as="points">
              <mxPoint x="902" y="1839" />
              <mxPoint x="902" y="834" />
            </Array>
          </mxGeometry>
        </mxCell>
        <mxCell id="MaB-Qeh2MucJvg17H76J-75" value="No" style="curved=1;startArrow=none;endArrow=block;exitX=0.5;exitY=1;entryX=0.48;entryY=0;rounded=0;" edge="1" parent="WIyWlLk6GJQsqaUBKTNV-1" source="MaB-Qeh2MucJvg17H76J-54" target="MaB-Qeh2MucJvg17H76J-55">
          <mxGeometry relative="1" as="geometry">
            <Array as="points" />
          </mxGeometry>
        </mxCell>
      </root>
    </mxGraphModel>
  </diagram>
</mxfile>
